<svg width="256" height="256" viewBox="0 0 256 256" xmlns="http://www.w3.org/2000/svg" role="img" aria-label="Refrigeração Profissional - ícone">
  <defs>
    <linearGradient id="gp" x1="0" y1="0" x2="1" y2="1">
      <stop offset="0" stop-color="#0EA5E9"></stop>
      <stop offset="1" stop-color="#14B8A6"></stop>
    </linearGradient>
    <filter id="s" x="-20%" y="-20%" width="140%" height="140%">
      <feDropShadow dx="0" dy="6" stdDeviation="8" flood-color="rgba(2,6,23,.18)"></feDropShadow>
    </filter>
  </defs>

  <!-- pastilha arredondada -->
  <rect x="16" y="16" width="224" height="224" rx="48" fill="url(#gp)" filter="url(#s)"></rect>

  <!-- floco minimal com pontas arredondadas (bem grosso p/ legibilidade em 16px) -->
  <g stroke="#FFFFFF" stroke-width="14" stroke-linecap="round" stroke-linejoin="round" fill="none" transform="translate(128 128)">
    <!-- eixo vertical -->
    <path d="M0 -64L0 64M0 -64l-12 12M0 -64l12 12M0 64l-12 -12M0 64l12 -12"></path>
    <!-- eixo 60° -->
    <g transform="rotate(60)">
      <path d="M0 -64L0 64M0 -64l-12 12M0 -64l12 12M0 64l-12 -12M0 64l12 -12"></path>
    </g>
    <!-- eixo -60° -->
    <g transform="rotate(-60)">
      <path d="M0 -64L0 64M0 -64l-12 12M0 -64l12 12M0 64l-12 -12M0 64l12 -12"></path>
    </g>
    <!-- miolo/hexágono -->
    <polygon points="0,-22 19,-11 19,11 0,22 -19,11 -19,-11" fill="none"></polygon>
  </g>
</svg>
