<svg width="760" height="140" viewBox="0 0 760 140" xmlns="http://www.w3.org/2000/svg" role="img" aria-label="Logo Refrigeração Profissional">
  <defs>
    <linearGradient id="gp" x1="0" y1="0" x2="1" y2="1">
      <stop offset="0" stop-color="#0EA5E9"></stop>
      <stop offset="1" stop-color="#14B8A6"></stop>
    </linearGradient>
  </defs>

  <!-- Ícone (mesmo do arquivo de cima, simplificado) -->
  <g transform="translate(0,0)">
    <rect x="0" y="0" width="140" height="140" rx="28" fill="url(#gp)"></rect>
    <g stroke="#fff" stroke-width="8" stroke-linecap="round" stroke-linejoin="round" fill="none" transform="translate(70,70)">
      <path d="M0 -36L0 36M0 -36l-8 8M0 -36l8 8M0 36l-8 -8M0 36l8 -8"></path>
      <g transform="rotate(60)">
        <path d="M0 -36L0 36M0 -36l-8 8M0 -36l8 8M0 36l-8 -8M0 36l8 -8"></path>
      </g>
      <g transform="rotate(-60)">
        <path d="M0 -36L0 36M0 -36l-8 8M0 -36l8 8M0 36l-8 -8M0 36l8 -8"></path>
      </g>
      <polygon points="0,-14 12,-7 12,7 0,14 -12,7 -12,-7"></polygon>
    </g>
  </g>

  <!-- Wordmark -->
  <g font-family="Inter, system-ui, -apple-system, Segoe UI, Roboto, Arial, sans-serif" font-weight="800">
    <text x="168" y="58" font-size="40" fill="#0F172A" letter-spacing="0.2px">Refrigeração</text>
    <text x="168" y="106" font-size="46" fill="#0EA5E9" letter-spacing="0.2px">Profissional</text>
  </g>
</svg>
