<svg xmlns="http://www.w3.org/2000/svg" viewBox="0 0 32 32" fill="#ffffff"><path d="M16.04 3C9.398 3 4 8.399 4 15.041c0 2.649.778 5.103 2.122 7.176L4 29l6.957-2.095A11.948 11.948 0 0 0 16.04 27C22.683 27 28 21.601 28 14.959 28 8.317 22.683 3 16.04 3Zm0 21.944c-1.866 0-3.682-.497-5.264-1.44l-.376-.223-4.137 1.246 1.246-4.034-.245-.392a10.495 10.495 0 0 1-1.59-5.66c0-5.8 4.757-10.557 10.557-10.557 5.8 0 10.557 4.757 10.557 10.557 0 5.801-4.757 10.558-10.557 10.558Zm5.83-7.91c-.317-.159-1.877-.926-2.167-1.03-.29-.105-.502-.159-.715.158-.212.317-.823 1.03-1.009 1.243-.185.212-.37.238-.687.079-.317-.158-1.34-.493-2.552-1.571-.943-.841-1.579-1.879-1.764-2.196-.185-.317-.02-.488.139-.647.142-.142.317-.37.476-.555.159-.185.212-.317.317-.529.105-.212.053-.396-.026-.555-.079-.158-.714-1.72-.978-2.358-.258-.62-.523-.535-.715-.545-.185-.008-.396-.01-.607-.01-.212 0-.556.08-.847.396-.29.317-1.112 1.085-1.112 2.646 0 1.561 1.138 3.07 1.297 3.283.158.211 2.239 3.418 5.428 4.79.759.328 1.351.523 1.814.668.762.243 1.456.209 2.006.127.612-.091 1.877-.767 2.142-1.507.265-.74.265-1.372.185-1.507-.079-.133-.29-.21-.607-.37Z"/></svg>